<mxfile host="app.diagrams.net" modified="2023-12-05T15:36:04.546Z" agent="Mozilla/5.0 (Windows NT 10.0; Win64; x64) AppleWebKit/537.36 (KHTML, like Gecko) Chrome/119.0.0.0 Safari/537.36 Edg/119.0.0.0" etag="6J7k7iGu34vHwekFZMKX" version="22.1.5" type="onedrive" pages="2">
  <diagram name="第 1 页" id="MpP4I6gVkizucNebOkAv">
    <mxGraphModel grid="0" page="1" gridSize="10" guides="1" tooltips="1" connect="1" arrows="1" fold="1" pageScale="1" pageWidth="20000" pageHeight="40000" math="0" shadow="0">
      <root>
        <mxCell id="0" />
        <mxCell id="1" parent="0" />
        <mxCell id="6Lgxc9Jcnkx1HR9WivYI-1" value="老师" style="shape=umlActor;verticalLabelPosition=bottom;verticalAlign=top;html=1;outlineConnect=0;fillColor=#f8cecc;strokeColor=#b85450;" vertex="1" parent="1">
          <mxGeometry x="145" y="373" width="30" height="60" as="geometry" />
        </mxCell>
        <mxCell id="6Lgxc9Jcnkx1HR9WivYI-5" value="" style="ellipse;whiteSpace=wrap;html=1;fillColor=#fff2cc;strokeColor=#FF0000;" vertex="1" parent="1">
          <mxGeometry x="344" y="146" width="140" height="70" as="geometry" />
        </mxCell>
        <mxCell id="6Lgxc9Jcnkx1HR9WivYI-7" value="" style="ellipse;whiteSpace=wrap;html=1;fillColor=#fff2cc;strokeColor=#FF0000;" vertex="1" parent="1">
          <mxGeometry x="344" y="268" width="140" height="70" as="geometry" />
        </mxCell>
        <mxCell id="6Lgxc9Jcnkx1HR9WivYI-8" value="" style="ellipse;whiteSpace=wrap;html=1;fillColor=#fff2cc;strokeColor=#FF0000;" vertex="1" parent="1">
          <mxGeometry x="344" y="392" width="140" height="70" as="geometry" />
        </mxCell>
        <mxCell id="6Lgxc9Jcnkx1HR9WivYI-9" value="" style="ellipse;whiteSpace=wrap;html=1;fillColor=#fff2cc;strokeColor=#FF0000;" vertex="1" parent="1">
          <mxGeometry x="344" y="505" width="140" height="70" as="geometry" />
        </mxCell>
        <mxCell id="6Lgxc9Jcnkx1HR9WivYI-10" value="" style="ellipse;whiteSpace=wrap;html=1;fillColor=#fff2cc;strokeColor=#FF0000;" vertex="1" parent="1">
          <mxGeometry x="341" y="611" width="140" height="70" as="geometry" />
        </mxCell>
        <mxCell id="6Lgxc9Jcnkx1HR9WivYI-11" value="" style="endArrow=open;endSize=12;dashed=1;html=1;rounded=0;entryX=0;entryY=0;entryDx=0;entryDy=0;fillColor=#f8cecc;strokeColor=#b85450;strokeWidth=2;" edge="1" parent="1" target="6Lgxc9Jcnkx1HR9WivYI-14">
          <mxGeometry x="0.0869" y="19" width="160" relative="1" as="geometry">
            <mxPoint x="479" y="224" as="sourcePoint" />
            <mxPoint x="692" y="409" as="targetPoint" />
            <mxPoint as="offset" />
          </mxGeometry>
        </mxCell>
        <mxCell id="6Lgxc9Jcnkx1HR9WivYI-12" value="&amp;lt;&amp;lt;include&amp;gt;&amp;gt;" style="text;html=1;align=center;verticalAlign=middle;resizable=0;points=[];autosize=1;strokeColor=none;fillColor=none;strokeWidth=3;fontSize=14;" vertex="1" parent="1">
          <mxGeometry x="549" y="259" width="95" height="29" as="geometry" />
        </mxCell>
        <mxCell id="6Lgxc9Jcnkx1HR9WivYI-14" value="" style="ellipse;whiteSpace=wrap;html=1;fillColor=#fff2cc;strokeColor=#FF0000;" vertex="1" parent="1">
          <mxGeometry x="661" y="322" width="140" height="70" as="geometry" />
        </mxCell>
        <mxCell id="6Lgxc9Jcnkx1HR9WivYI-28" value="&lt;font style=&quot;font-size: 13px;&quot;&gt;&amp;lt;&amp;lt;include&amp;gt;&amp;gt;&lt;/font&gt;" style="endArrow=open;endSize=12;dashed=1;html=1;rounded=0;exitX=1;exitY=0;exitDx=0;exitDy=0;entryX=0;entryY=1;entryDx=0;entryDy=0;strokeColor=#b85450;fillColor=#f8cecc;strokeWidth=2;" edge="1" parent="1" source="6Lgxc9Jcnkx1HR9WivYI-9" target="6Lgxc9Jcnkx1HR9WivYI-14">
          <mxGeometry x="0.0212" y="14" width="160" relative="1" as="geometry">
            <mxPoint x="774" y="379" as="sourcePoint" />
            <mxPoint x="934" y="379" as="targetPoint" />
            <mxPoint as="offset" />
          </mxGeometry>
        </mxCell>
        <mxCell id="6Lgxc9Jcnkx1HR9WivYI-29" value="&lt;font style=&quot;font-size: 13px;&quot;&gt;&amp;lt;&amp;lt;include&amp;gt;&amp;gt;&lt;/font&gt;" style="endArrow=open;endSize=12;dashed=1;html=1;rounded=0;exitX=1;exitY=0.5;exitDx=0;exitDy=0;entryX=0;entryY=0.5;entryDx=0;entryDy=0;strokeColor=#b85450;fillColor=#f8cecc;strokeWidth=2;" edge="1" parent="1" source="6Lgxc9Jcnkx1HR9WivYI-8" target="6Lgxc9Jcnkx1HR9WivYI-14">
          <mxGeometry x="-0.0229" y="10" width="160" relative="1" as="geometry">
            <mxPoint x="471" y="485" as="sourcePoint" />
            <mxPoint x="691" y="392" as="targetPoint" />
            <mxPoint as="offset" />
          </mxGeometry>
        </mxCell>
        <mxCell id="6Lgxc9Jcnkx1HR9WivYI-31" value="&lt;font style=&quot;font-size: 14px;&quot;&gt;&amp;lt;&amp;lt;include&amp;gt;&amp;gt;&lt;/font&gt;" style="endArrow=open;endSize=12;dashed=1;html=1;rounded=0;exitX=1;exitY=0.5;exitDx=0;exitDy=0;entryX=0;entryY=0.5;entryDx=0;entryDy=0;strokeColor=#b85450;fillColor=#f8cecc;strokeWidth=2;" edge="1" parent="1" source="6Lgxc9Jcnkx1HR9WivYI-7" target="6Lgxc9Jcnkx1HR9WivYI-14">
          <mxGeometry x="0.0212" y="14" width="160" relative="1" as="geometry">
            <mxPoint x="471" y="485" as="sourcePoint" />
            <mxPoint x="691" y="392" as="targetPoint" />
            <mxPoint as="offset" />
          </mxGeometry>
        </mxCell>
        <mxCell id="zAHappLqphE8D_-9Nf3t-5" style="edgeStyle=none;shape=connector;rounded=0;orthogonalLoop=1;jettySize=auto;html=1;dashed=1;labelBackgroundColor=default;strokeColor=#b85450;strokeWidth=2;align=center;verticalAlign=middle;fontFamily=Helvetica;fontSize=11;fontColor=default;endArrow=open;endFill=0;endSize=12;fillColor=#f8cecc;entryX=0.574;entryY=1;entryDx=0;entryDy=0;entryPerimeter=0;" edge="1" parent="1" source="6Lgxc9Jcnkx1HR9WivYI-32" target="6Lgxc9Jcnkx1HR9WivYI-14">
          <mxGeometry relative="1" as="geometry">
            <mxPoint x="738" y="398" as="targetPoint" />
          </mxGeometry>
        </mxCell>
        <mxCell id="6Lgxc9Jcnkx1HR9WivYI-32" value="" style="ellipse;whiteSpace=wrap;html=1;fillColor=#fff2cc;strokeColor=#FF0000;" vertex="1" parent="1">
          <mxGeometry x="732" y="575" width="140" height="70" as="geometry" />
        </mxCell>
        <mxCell id="zAHappLqphE8D_-9Nf3t-2" style="edgeStyle=none;shape=connector;rounded=0;orthogonalLoop=1;jettySize=auto;html=1;exitX=0;exitY=0.5;exitDx=0;exitDy=0;entryX=1;entryY=0;entryDx=0;entryDy=0;labelBackgroundColor=default;strokeColor=#b85450;align=center;verticalAlign=middle;fontFamily=Helvetica;fontSize=11;fontColor=default;endArrow=open;endFill=0;endSize=12;dashed=1;fillColor=#f8cecc;strokeWidth=2;" edge="1" parent="1" source="6Lgxc9Jcnkx1HR9WivYI-33" target="6Lgxc9Jcnkx1HR9WivYI-14">
          <mxGeometry relative="1" as="geometry" />
        </mxCell>
        <mxCell id="6Lgxc9Jcnkx1HR9WivYI-33" value="" style="ellipse;whiteSpace=wrap;html=1;fillColor=#fff2cc;strokeColor=#FF0000;" vertex="1" parent="1">
          <mxGeometry x="935" y="184" width="140" height="72" as="geometry" />
        </mxCell>
        <mxCell id="zAHappLqphE8D_-9Nf3t-3" style="edgeStyle=none;shape=connector;rounded=0;orthogonalLoop=1;jettySize=auto;html=1;exitX=0;exitY=0.5;exitDx=0;exitDy=0;entryX=1;entryY=0.5;entryDx=0;entryDy=0;dashed=1;labelBackgroundColor=default;strokeColor=#b85450;strokeWidth=2;align=center;verticalAlign=middle;fontFamily=Helvetica;fontSize=11;fontColor=default;endArrow=open;endFill=0;endSize=12;fillColor=#f8cecc;" edge="1" parent="1" source="6Lgxc9Jcnkx1HR9WivYI-34" target="6Lgxc9Jcnkx1HR9WivYI-14">
          <mxGeometry relative="1" as="geometry" />
        </mxCell>
        <mxCell id="6Lgxc9Jcnkx1HR9WivYI-34" value="" style="ellipse;whiteSpace=wrap;html=1;fillColor=#fff2cc;strokeColor=#FF0000;" vertex="1" parent="1">
          <mxGeometry x="935" y="300" width="140" height="70" as="geometry" />
        </mxCell>
        <mxCell id="zAHappLqphE8D_-9Nf3t-4" style="edgeStyle=none;shape=connector;rounded=0;orthogonalLoop=1;jettySize=auto;html=1;exitX=0;exitY=0.5;exitDx=0;exitDy=0;dashed=1;labelBackgroundColor=default;strokeColor=#b85450;strokeWidth=2;align=center;verticalAlign=middle;fontFamily=Helvetica;fontSize=11;fontColor=default;endArrow=open;endFill=0;endSize=12;fillColor=#f8cecc;" edge="1" parent="1" source="6Lgxc9Jcnkx1HR9WivYI-35" target="6Lgxc9Jcnkx1HR9WivYI-14">
          <mxGeometry relative="1" as="geometry" />
        </mxCell>
        <mxCell id="6Lgxc9Jcnkx1HR9WivYI-35" value="" style="ellipse;whiteSpace=wrap;html=1;fillColor=#fff2cc;strokeColor=#FF0000;" vertex="1" parent="1">
          <mxGeometry x="935" y="422" width="140" height="70" as="geometry" />
        </mxCell>
        <mxCell id="6Lgxc9Jcnkx1HR9WivYI-36" value="" style="ellipse;whiteSpace=wrap;html=1;fillColor=#fff2cc;strokeColor=#FF0000;" vertex="1" parent="1">
          <mxGeometry x="932" y="575" width="140" height="70" as="geometry" />
        </mxCell>
        <mxCell id="6Lgxc9Jcnkx1HR9WivYI-49" style="rounded=0;orthogonalLoop=1;jettySize=auto;html=1;exitX=0;exitY=0.3333333333333333;exitDx=0;exitDy=0;exitPerimeter=0;endArrow=open;endFill=0;strokeColor=#b85450;fillColor=#f8cecc;endSize=12;strokeWidth=2;" edge="1" parent="1" source="6Lgxc9Jcnkx1HR9WivYI-37">
          <mxGeometry relative="1" as="geometry">
            <mxPoint x="820" y="674" as="targetPoint" />
          </mxGeometry>
        </mxCell>
        <mxCell id="6Lgxc9Jcnkx1HR9WivYI-37" value="系主任" style="shape=umlActor;verticalLabelPosition=bottom;verticalAlign=top;html=1;fillColor=#f8cecc;strokeColor=#b85450;" vertex="1" parent="1">
          <mxGeometry x="897" y="790" width="30" height="60" as="geometry" />
        </mxCell>
        <mxCell id="6Lgxc9Jcnkx1HR9WivYI-42" value="" style="endArrow=open;html=1;rounded=0;exitX=1;exitY=0.3333333333333333;exitDx=0;exitDy=0;exitPerimeter=0;entryX=0;entryY=0.5;entryDx=0;entryDy=0;fillColor=#f8cecc;strokeColor=#b85450;endSize=12;strokeWidth=2;" edge="1" parent="1" source="6Lgxc9Jcnkx1HR9WivYI-1" target="6Lgxc9Jcnkx1HR9WivYI-5">
          <mxGeometry width="50" height="50" relative="1" as="geometry">
            <mxPoint x="422" y="507" as="sourcePoint" />
            <mxPoint x="472" y="457" as="targetPoint" />
          </mxGeometry>
        </mxCell>
        <mxCell id="6Lgxc9Jcnkx1HR9WivYI-43" value="" style="endArrow=open;html=1;rounded=0;exitX=1;exitY=0.3333333333333333;exitDx=0;exitDy=0;exitPerimeter=0;entryX=0;entryY=0.5;entryDx=0;entryDy=0;strokeColor=#b85450;fillColor=#f8cecc;endSize=12;strokeWidth=2;" edge="1" parent="1" source="6Lgxc9Jcnkx1HR9WivYI-1" target="6Lgxc9Jcnkx1HR9WivYI-7">
          <mxGeometry width="50" height="50" relative="1" as="geometry">
            <mxPoint x="213" y="494" as="sourcePoint" />
            <mxPoint x="263" y="444" as="targetPoint" />
          </mxGeometry>
        </mxCell>
        <mxCell id="6Lgxc9Jcnkx1HR9WivYI-45" value="" style="endArrow=open;html=1;rounded=0;exitX=1;exitY=0.3333333333333333;exitDx=0;exitDy=0;exitPerimeter=0;entryX=0;entryY=0.5;entryDx=0;entryDy=0;strokeColor=#b85450;fillColor=#f8cecc;endSize=12;strokeWidth=2;" edge="1" parent="1" source="6Lgxc9Jcnkx1HR9WivYI-1" target="6Lgxc9Jcnkx1HR9WivYI-8">
          <mxGeometry width="50" height="50" relative="1" as="geometry">
            <mxPoint x="457" y="505" as="sourcePoint" />
            <mxPoint x="507" y="455" as="targetPoint" />
          </mxGeometry>
        </mxCell>
        <mxCell id="6Lgxc9Jcnkx1HR9WivYI-46" value="" style="endArrow=open;html=1;rounded=0;exitX=1;exitY=0.3333333333333333;exitDx=0;exitDy=0;exitPerimeter=0;entryX=0;entryY=0.5;entryDx=0;entryDy=0;strokeColor=#b85450;fillColor=#f8cecc;endSize=12;strokeWidth=2;" edge="1" parent="1" source="6Lgxc9Jcnkx1HR9WivYI-1" target="6Lgxc9Jcnkx1HR9WivYI-9">
          <mxGeometry width="50" height="50" relative="1" as="geometry">
            <mxPoint x="236" y="539" as="sourcePoint" />
            <mxPoint x="286" y="489" as="targetPoint" />
          </mxGeometry>
        </mxCell>
        <mxCell id="6Lgxc9Jcnkx1HR9WivYI-47" value="" style="endArrow=open;html=1;rounded=0;exitX=1;exitY=0.3333333333333333;exitDx=0;exitDy=0;exitPerimeter=0;entryX=0;entryY=0.5;entryDx=0;entryDy=0;strokeColor=#b85450;fillColor=#f8cecc;endSize=12;strokeWidth=2;" edge="1" parent="1" source="6Lgxc9Jcnkx1HR9WivYI-1" target="6Lgxc9Jcnkx1HR9WivYI-10">
          <mxGeometry width="50" height="50" relative="1" as="geometry">
            <mxPoint x="210" y="612" as="sourcePoint" />
            <mxPoint x="260" y="562" as="targetPoint" />
          </mxGeometry>
        </mxCell>
        <mxCell id="zAHappLqphE8D_-9Nf3t-6" style="edgeStyle=none;shape=connector;rounded=0;orthogonalLoop=1;jettySize=auto;html=1;exitX=0.5;exitY=0;exitDx=0;exitDy=0;entryX=0.711;entryY=0.955;entryDx=0;entryDy=0;entryPerimeter=0;dashed=1;labelBackgroundColor=default;strokeColor=#b85450;strokeWidth=2;align=center;verticalAlign=middle;fontFamily=Helvetica;fontSize=11;fontColor=default;endArrow=open;endFill=0;endSize=12;fillColor=#f8cecc;" edge="1" parent="1" source="6Lgxc9Jcnkx1HR9WivYI-36" target="6Lgxc9Jcnkx1HR9WivYI-14">
          <mxGeometry relative="1" as="geometry" />
        </mxCell>
        <mxCell id="zAHappLqphE8D_-9Nf3t-17" style="edgeStyle=none;shape=connector;rounded=0;orthogonalLoop=1;jettySize=auto;html=1;exitX=0;exitY=0.3333333333333333;exitDx=0;exitDy=0;exitPerimeter=0;entryX=1;entryY=0.5;entryDx=0;entryDy=0;labelBackgroundColor=default;strokeColor=#b85450;strokeWidth=2;align=center;verticalAlign=middle;fontFamily=Helvetica;fontSize=11;fontColor=default;endArrow=open;endSize=12;fillColor=#f8cecc;" edge="1" parent="1" source="zAHappLqphE8D_-9Nf3t-7" target="6Lgxc9Jcnkx1HR9WivYI-33">
          <mxGeometry relative="1" as="geometry" />
        </mxCell>
        <mxCell id="zAHappLqphE8D_-9Nf3t-18" style="edgeStyle=none;shape=connector;rounded=0;orthogonalLoop=1;jettySize=auto;html=1;exitX=0;exitY=0.3333333333333333;exitDx=0;exitDy=0;exitPerimeter=0;entryX=1;entryY=0.5;entryDx=0;entryDy=0;labelBackgroundColor=default;strokeColor=#b85450;strokeWidth=2;align=center;verticalAlign=middle;fontFamily=Helvetica;fontSize=11;fontColor=default;endArrow=open;endSize=12;fillColor=#f8cecc;" edge="1" parent="1" source="zAHappLqphE8D_-9Nf3t-7" target="6Lgxc9Jcnkx1HR9WivYI-34">
          <mxGeometry relative="1" as="geometry" />
        </mxCell>
        <mxCell id="zAHappLqphE8D_-9Nf3t-19" style="edgeStyle=none;shape=connector;rounded=0;orthogonalLoop=1;jettySize=auto;html=1;exitX=0;exitY=0.3333333333333333;exitDx=0;exitDy=0;exitPerimeter=0;entryX=1;entryY=0.5;entryDx=0;entryDy=0;labelBackgroundColor=default;strokeColor=#b85450;strokeWidth=2;align=center;verticalAlign=middle;fontFamily=Helvetica;fontSize=11;fontColor=default;endArrow=open;endSize=12;fillColor=#f8cecc;" edge="1" parent="1" source="zAHappLqphE8D_-9Nf3t-7" target="6Lgxc9Jcnkx1HR9WivYI-35">
          <mxGeometry relative="1" as="geometry" />
        </mxCell>
        <mxCell id="zAHappLqphE8D_-9Nf3t-7" value="学生" style="shape=umlActor;verticalLabelPosition=bottom;verticalAlign=top;html=1;fontFamily=Helvetica;fontSize=12;fontColor=default;fillColor=#f8cecc;strokeColor=#b85450;" vertex="1" parent="1">
          <mxGeometry x="1240" y="327" width="30" height="60" as="geometry" />
        </mxCell>
        <mxCell id="zAHappLqphE8D_-9Nf3t-9" value="&lt;font style=&quot;font-size: 17px;&quot;&gt;申报课题&lt;/font&gt;" style="text;html=1;align=center;verticalAlign=middle;resizable=0;points=[];autosize=1;strokeColor=none;fillColor=none;fontSize=11;fontFamily=Helvetica;fontColor=default;" vertex="1" parent="1">
          <mxGeometry x="368" y="220" width="86" height="32" as="geometry" />
        </mxCell>
        <mxCell id="zAHappLqphE8D_-9Nf3t-10" value="&lt;span style=&quot;color: rgb(0, 0, 0); font-family: Helvetica; font-style: normal; font-variant-ligatures: normal; font-variant-caps: normal; font-weight: 400; letter-spacing: normal; orphans: 2; text-align: center; text-indent: 0px; text-transform: none; widows: 2; word-spacing: 0px; -webkit-text-stroke-width: 0px; background-color: rgb(251, 251, 251); text-decoration-thickness: initial; text-decoration-style: initial; text-decoration-color: initial; float: none; display: inline !important;&quot;&gt;&lt;font style=&quot;font-size: 17px;&quot;&gt;填写指导日志&lt;/font&gt;&lt;/span&gt;" style="text;whiteSpace=wrap;html=1;fontSize=11;fontFamily=Helvetica;fontColor=default;" vertex="1" parent="1">
          <mxGeometry x="357" y="334" width="131" height="36" as="geometry" />
        </mxCell>
        <mxCell id="zAHappLqphE8D_-9Nf3t-11" value="&lt;font style=&quot;font-size: 17px;&quot;&gt;审核学生的周进展&lt;/font&gt;" style="text;html=1;align=center;verticalAlign=middle;resizable=0;points=[];autosize=1;strokeColor=none;fillColor=none;fontSize=11;fontFamily=Helvetica;fontColor=default;" vertex="1" parent="1">
          <mxGeometry x="334" y="458" width="154" height="32" as="geometry" />
        </mxCell>
        <mxCell id="zAHappLqphE8D_-9Nf3t-12" value="&lt;font style=&quot;font-size: 17px;&quot;&gt;审核学生中期报告和论文&lt;/font&gt;" style="text;html=1;align=center;verticalAlign=middle;resizable=0;points=[];autosize=1;strokeColor=none;fillColor=none;fontSize=11;fontFamily=Helvetica;fontColor=default;" vertex="1" parent="1">
          <mxGeometry x="312" y="572" width="205" height="32" as="geometry" />
        </mxCell>
        <mxCell id="zAHappLqphE8D_-9Nf3t-13" value="&lt;span style=&quot;color: rgb(0, 0, 0); font-family: Helvetica; font-style: normal; font-variant-ligatures: normal; font-variant-caps: normal; font-weight: 400; letter-spacing: normal; orphans: 2; text-align: center; text-indent: 0px; text-transform: none; widows: 2; word-spacing: 0px; -webkit-text-stroke-width: 0px; background-color: rgb(251, 251, 251); text-decoration-thickness: initial; text-decoration-style: initial; text-decoration-color: initial; float: none; display: inline !important;&quot;&gt;&lt;font style=&quot;font-size: 17px;&quot;&gt;评阅其他学生的论文&lt;/font&gt;&lt;/span&gt;" style="text;whiteSpace=wrap;html=1;fontSize=11;fontFamily=Helvetica;fontColor=default;" vertex="1" parent="1">
          <mxGeometry x="334" y="678" width="185.5" height="36" as="geometry" />
        </mxCell>
        <mxCell id="zAHappLqphE8D_-9Nf3t-14" value="&lt;font style=&quot;font-size: 17px;&quot;&gt;登录&lt;/font&gt;" style="text;html=1;align=center;verticalAlign=middle;resizable=0;points=[];autosize=1;strokeColor=none;fillColor=none;fontSize=11;fontFamily=Helvetica;fontColor=default;" vertex="1" parent="1">
          <mxGeometry x="680" y="392" width="52" height="32" as="geometry" />
        </mxCell>
        <mxCell id="zAHappLqphE8D_-9Nf3t-21" value="&lt;font style=&quot;font-size: 17px;&quot;&gt;选择毕业设计课题&lt;/font&gt;" style="text;html=1;align=center;verticalAlign=middle;resizable=0;points=[];autosize=1;strokeColor=none;fillColor=none;fontSize=11;fontFamily=Helvetica;fontColor=default;" vertex="1" parent="1">
          <mxGeometry x="932" y="258" width="154" height="32" as="geometry" />
        </mxCell>
        <mxCell id="zAHappLqphE8D_-9Nf3t-22" value="&lt;span style=&quot;color: rgb(0, 0, 0); font-family: Helvetica; font-style: normal; font-variant-ligatures: normal; font-variant-caps: normal; font-weight: 400; letter-spacing: normal; orphans: 2; text-align: center; text-indent: 0px; text-transform: none; widows: 2; word-spacing: 0px; -webkit-text-stroke-width: 0px; background-color: rgb(251, 251, 251); text-decoration-thickness: initial; text-decoration-style: initial; text-decoration-color: initial; float: none; display: inline !important;&quot;&gt;&lt;font style=&quot;font-size: 17px;&quot;&gt;提交周进展&lt;/font&gt;&lt;/span&gt;" style="text;whiteSpace=wrap;html=1;fontSize=11;fontFamily=Helvetica;fontColor=default;" vertex="1" parent="1">
          <mxGeometry x="964.9974070829504" y="373.0031538660387" width="88" height="36" as="geometry" />
        </mxCell>
        <mxCell id="zAHappLqphE8D_-9Nf3t-23" value="&lt;span style=&quot;color: rgb(0, 0, 0); font-family: Helvetica; font-style: normal; font-variant-ligatures: normal; font-variant-caps: normal; font-weight: 400; letter-spacing: normal; orphans: 2; text-align: center; text-indent: 0px; text-transform: none; widows: 2; word-spacing: 0px; -webkit-text-stroke-width: 0px; background-color: rgb(251, 251, 251); text-decoration-thickness: initial; text-decoration-style: initial; text-decoration-color: initial; float: none; display: inline !important;&quot;&gt;&lt;font style=&quot;font-size: 17px;&quot;&gt;提交中期报告和论文&lt;/font&gt;&lt;/span&gt;" style="text;whiteSpace=wrap;html=1;fontSize=11;fontFamily=Helvetica;fontColor=default;" vertex="1" parent="1">
          <mxGeometry x="935" y="492" width="170" height="36" as="geometry" />
        </mxCell>
        <mxCell id="zAHappLqphE8D_-9Nf3t-25" value="" style="edgeStyle=none;shape=connector;rounded=0;orthogonalLoop=1;jettySize=auto;html=1;exitX=1;exitY=0.3333333333333333;exitDx=0;exitDy=0;exitPerimeter=0;labelBackgroundColor=default;strokeColor=#b85450;align=center;verticalAlign=middle;fontFamily=Helvetica;fontSize=11;fontColor=default;endArrow=open;endFill=0;fillColor=#f8cecc;endSize=12;strokeWidth=2;" edge="1" parent="1" source="6Lgxc9Jcnkx1HR9WivYI-37">
          <mxGeometry relative="1" as="geometry">
            <mxPoint x="927" y="762" as="sourcePoint" />
            <mxPoint x="991" y="675" as="targetPoint" />
          </mxGeometry>
        </mxCell>
        <mxCell id="zAHappLqphE8D_-9Nf3t-26" value="&lt;font style=&quot;font-size: 17px;&quot;&gt;审核毕业设计课题&lt;/font&gt;" style="text;html=1;align=center;verticalAlign=middle;resizable=0;points=[];autosize=1;strokeColor=none;fillColor=none;fontSize=11;fontFamily=Helvetica;fontColor=default;" vertex="1" parent="1">
          <mxGeometry x="932" y="645" width="154" height="32" as="geometry" />
        </mxCell>
        <mxCell id="zAHappLqphE8D_-9Nf3t-27" value="&lt;font style=&quot;font-size: 17px;&quot;&gt;分配毕业课题&lt;/font&gt;" style="text;html=1;align=center;verticalAlign=middle;resizable=0;points=[];autosize=1;strokeColor=none;fillColor=none;fontSize=11;fontFamily=Helvetica;fontColor=default;" vertex="1" parent="1">
          <mxGeometry x="742" y="645" width="120" height="32" as="geometry" />
        </mxCell>
        <mxCell id="zAHappLqphE8D_-9Nf3t-28" value="&amp;lt;&amp;lt;include&amp;gt;&amp;gt;" style="text;html=1;align=center;verticalAlign=middle;resizable=0;points=[];autosize=1;strokeColor=none;fillColor=none;strokeWidth=3;fontSize=14;" vertex="1" parent="1">
          <mxGeometry x="764" y="247" width="95" height="29" as="geometry" />
        </mxCell>
        <mxCell id="zAHappLqphE8D_-9Nf3t-31" value="&amp;lt;&amp;lt;include&amp;gt;&amp;gt;" style="text;html=1;align=center;verticalAlign=middle;resizable=0;points=[];autosize=1;strokeColor=none;fillColor=none;strokeWidth=3;fontSize=14;" vertex="1" parent="1">
          <mxGeometry x="818" y="309" width="95" height="29" as="geometry" />
        </mxCell>
        <mxCell id="zAHappLqphE8D_-9Nf3t-32" value="&amp;lt;&amp;lt;include&amp;gt;&amp;gt;" style="text;html=1;align=center;verticalAlign=middle;resizable=0;points=[];autosize=1;strokeColor=none;fillColor=none;strokeWidth=3;fontSize=14;" vertex="1" parent="1">
          <mxGeometry x="826" y="388.5" width="95" height="29" as="geometry" />
        </mxCell>
        <mxCell id="zAHappLqphE8D_-9Nf3t-33" value="&amp;lt;&amp;lt;include&amp;gt;&amp;gt;" style="text;html=1;align=center;verticalAlign=middle;resizable=0;points=[];autosize=1;strokeColor=none;fillColor=none;strokeWidth=3;fontSize=14;" vertex="1" parent="1">
          <mxGeometry x="832" y="450" width="95" height="29" as="geometry" />
        </mxCell>
        <mxCell id="zAHappLqphE8D_-9Nf3t-34" value="&amp;lt;&amp;lt;include&amp;gt;&amp;gt;" style="text;html=1;align=center;verticalAlign=middle;resizable=0;points=[];autosize=1;strokeColor=none;fillColor=none;strokeWidth=3;fontSize=14;" vertex="1" parent="1">
          <mxGeometry x="731" y="458" width="95" height="29" as="geometry" />
        </mxCell>
        <mxCell id="zAHappLqphE8D_-9Nf3t-35" value="" style="ellipse;html=1;shape=startState;fillColor=#000000;strokeColor=#ff0000;align=left;verticalAlign=top;fontFamily=Helvetica;fontSize=11;fontColor=default;" vertex="1" parent="1">
          <mxGeometry x="479" y="1084" width="30" height="30" as="geometry" />
        </mxCell>
        <mxCell id="zAHappLqphE8D_-9Nf3t-36" value="" style="edgeStyle=orthogonalEdgeStyle;html=1;verticalAlign=bottom;endArrow=open;endSize=8;strokeColor=#ff0000;rounded=0;labelBackgroundColor=default;strokeWidth=2;align=center;fontFamily=Helvetica;fontSize=11;fontColor=default;fillColor=#f8cecc;shape=connector;entryX=0.5;entryY=0;entryDx=0;entryDy=0;" edge="1" parent="1" source="zAHappLqphE8D_-9Nf3t-35" target="zAHappLqphE8D_-9Nf3t-38">
          <mxGeometry relative="1" as="geometry">
            <mxPoint x="487" y="1232" as="targetPoint" />
          </mxGeometry>
        </mxCell>
        <mxCell id="zAHappLqphE8D_-9Nf3t-167" style="edgeStyle=none;shape=connector;curved=0;rounded=0;orthogonalLoop=1;jettySize=auto;html=1;exitX=0.5;exitY=1;exitDx=0;exitDy=0;entryX=0.5;entryY=0;entryDx=0;entryDy=0;labelBackgroundColor=default;strokeColor=#b85450;strokeWidth=2;align=center;verticalAlign=bottom;fontFamily=Helvetica;fontSize=18;fontColor=default;startArrow=none;startFill=0;endArrow=none;endFill=0;startSize=2;endSize=15;fillColor=#f8cecc;" edge="1" parent="1" source="zAHappLqphE8D_-9Nf3t-38" target="zAHappLqphE8D_-9Nf3t-164">
          <mxGeometry relative="1" as="geometry" />
        </mxCell>
        <mxCell id="zAHappLqphE8D_-9Nf3t-38" value="登录毕业设计&lt;br style=&quot;font-size: 13px;&quot;&gt;管理系统" style="rounded=1;whiteSpace=wrap;html=1;arcSize=40;fontColor=#000000;fillColor=#ffffc0;strokeColor=#ff0000;align=center;verticalAlign=top;fontFamily=Helvetica;fontSize=11;" vertex="1" parent="1">
          <mxGeometry x="434" y="1178" width="120" height="40" as="geometry" />
        </mxCell>
        <mxCell id="zAHappLqphE8D_-9Nf3t-44" value="" style="edgeStyle=none;shape=connector;rounded=0;orthogonalLoop=1;jettySize=auto;html=1;labelBackgroundColor=default;strokeColor=#b85450;strokeWidth=2;align=center;verticalAlign=middle;fontFamily=Helvetica;fontSize=11;fontColor=default;endArrow=open;endSize=12;fillColor=#f8cecc;" edge="1" parent="1" source="zAHappLqphE8D_-9Nf3t-41" target="zAHappLqphE8D_-9Nf3t-43">
          <mxGeometry relative="1" as="geometry" />
        </mxCell>
        <mxCell id="zAHappLqphE8D_-9Nf3t-41" value="进入申报课题界面" style="rounded=1;whiteSpace=wrap;html=1;arcSize=40;fontColor=#000000;fillColor=#ffffc0;strokeColor=#ff0000;align=center;verticalAlign=top;fontFamily=Helvetica;fontSize=11;" vertex="1" parent="1">
          <mxGeometry x="434" y="1356" width="120" height="40" as="geometry" />
        </mxCell>
        <mxCell id="zAHappLqphE8D_-9Nf3t-46" value="" style="edgeStyle=none;shape=connector;rounded=0;orthogonalLoop=1;jettySize=auto;html=1;labelBackgroundColor=default;strokeColor=#b85450;strokeWidth=2;align=center;verticalAlign=middle;fontFamily=Helvetica;fontSize=11;fontColor=default;endArrow=open;endSize=12;fillColor=#f8cecc;" edge="1" parent="1" source="zAHappLqphE8D_-9Nf3t-43" target="zAHappLqphE8D_-9Nf3t-45">
          <mxGeometry relative="1" as="geometry" />
        </mxCell>
        <mxCell id="zAHappLqphE8D_-9Nf3t-43" value="点击新增课题按钮" style="rounded=1;whiteSpace=wrap;html=1;arcSize=40;fontColor=#000000;fillColor=#ffffc0;strokeColor=#ff0000;align=center;verticalAlign=top;fontFamily=Helvetica;fontSize=11;" vertex="1" parent="1">
          <mxGeometry x="434" y="1476" width="120" height="40" as="geometry" />
        </mxCell>
        <mxCell id="zAHappLqphE8D_-9Nf3t-52" style="edgeStyle=none;shape=connector;rounded=0;orthogonalLoop=1;jettySize=auto;html=1;exitX=0.5;exitY=1;exitDx=0;exitDy=0;entryX=0.5;entryY=0;entryDx=0;entryDy=0;labelBackgroundColor=default;strokeColor=#b85450;strokeWidth=2;align=center;verticalAlign=middle;fontFamily=Helvetica;fontSize=11;fontColor=default;endArrow=open;endSize=12;fillColor=#f8cecc;" edge="1" parent="1" source="zAHappLqphE8D_-9Nf3t-45" target="zAHappLqphE8D_-9Nf3t-49">
          <mxGeometry relative="1" as="geometry" />
        </mxCell>
        <mxCell id="zAHappLqphE8D_-9Nf3t-45" value="填写课题内容" style="rounded=1;whiteSpace=wrap;html=1;arcSize=40;fontColor=#000000;fillColor=#ffffc0;strokeColor=#ff0000;align=center;verticalAlign=top;fontFamily=Helvetica;fontSize=11;" vertex="1" parent="1">
          <mxGeometry x="434" y="1596" width="120" height="40" as="geometry" />
        </mxCell>
        <mxCell id="zAHappLqphE8D_-9Nf3t-61" style="edgeStyle=none;shape=connector;rounded=0;orthogonalLoop=1;jettySize=auto;html=1;exitX=0.5;exitY=1;exitDx=0;exitDy=0;labelBackgroundColor=default;strokeColor=#b85450;strokeWidth=2;align=center;verticalAlign=middle;fontFamily=Helvetica;fontSize=11;fontColor=default;endArrow=open;endSize=12;fillColor=#f8cecc;" edge="1" parent="1" source="zAHappLqphE8D_-9Nf3t-49" target="zAHappLqphE8D_-9Nf3t-59">
          <mxGeometry relative="1" as="geometry" />
        </mxCell>
        <mxCell id="zAHappLqphE8D_-9Nf3t-178" style="edgeStyle=none;shape=connector;curved=0;rounded=0;orthogonalLoop=1;jettySize=auto;html=1;exitX=0;exitY=0.5;exitDx=0;exitDy=0;labelBackgroundColor=default;strokeColor=#b85450;strokeWidth=2;align=center;verticalAlign=bottom;fontFamily=Helvetica;fontSize=18;fontColor=default;startArrow=none;startFill=0;endArrow=open;endFill=0;startSize=12;endSize=12;fillColor=#f8cecc;entryX=0.5;entryY=0;entryDx=0;entryDy=0;" edge="1" parent="1" source="zAHappLqphE8D_-9Nf3t-49" target="zAHappLqphE8D_-9Nf3t-177">
          <mxGeometry relative="1" as="geometry">
            <mxPoint x="245.65314592633945" y="1705.8571428571431" as="targetPoint" />
            <Array as="points">
              <mxPoint x="317" y="1706" />
            </Array>
          </mxGeometry>
        </mxCell>
        <mxCell id="zAHappLqphE8D_-9Nf3t-49" value="&lt;div style=&quot;&quot;&gt;&lt;br&gt;&lt;/div&gt;&lt;div style=&quot;&quot;&gt;是否保存？&lt;/div&gt;" style="rhombus;whiteSpace=wrap;html=1;fontColor=#000000;fillColor=#ffffc0;strokeColor=#ff0000;align=center;verticalAlign=top;fontFamily=Helvetica;fontSize=11;" vertex="1" parent="1">
          <mxGeometry x="445.5" y="1678" width="97" height="55" as="geometry" />
        </mxCell>
        <mxCell id="zAHappLqphE8D_-9Nf3t-65" style="edgeStyle=none;shape=connector;rounded=0;orthogonalLoop=1;jettySize=auto;html=1;exitX=0.5;exitY=1;exitDx=0;exitDy=0;entryX=0.5;entryY=0;entryDx=0;entryDy=0;labelBackgroundColor=default;strokeColor=#b85450;strokeWidth=2;align=center;verticalAlign=middle;fontFamily=Helvetica;fontSize=11;fontColor=default;endArrow=open;endSize=12;fillColor=#f8cecc;" edge="1" parent="1" source="zAHappLqphE8D_-9Nf3t-59" target="zAHappLqphE8D_-9Nf3t-62">
          <mxGeometry relative="1" as="geometry" />
        </mxCell>
        <mxCell id="zAHappLqphE8D_-9Nf3t-59" value="保存课题" style="rounded=1;whiteSpace=wrap;html=1;arcSize=40;fontColor=#000000;fillColor=#ffffc0;strokeColor=#ff0000;align=center;verticalAlign=top;fontFamily=Helvetica;fontSize=11;" vertex="1" parent="1">
          <mxGeometry x="434" y="1789" width="120" height="40" as="geometry" />
        </mxCell>
        <mxCell id="zAHappLqphE8D_-9Nf3t-62" value="" style="ellipse;html=1;shape=endState;fillColor=#000000;strokeColor=#ff0000;align=left;verticalAlign=top;fontFamily=Helvetica;fontSize=11;fontColor=default;" vertex="1" parent="1">
          <mxGeometry x="479" y="1878" width="30" height="30" as="geometry" />
        </mxCell>
        <mxCell id="zAHappLqphE8D_-9Nf3t-105" style="edgeStyle=none;shape=connector;curved=0;rounded=0;orthogonalLoop=1;jettySize=auto;html=1;dashed=1;labelBackgroundColor=default;strokeColor=#000000;strokeWidth=1;align=center;verticalAlign=bottom;fontFamily=Helvetica;fontSize=18;fontColor=default;startArrow=none;startFill=0;endArrow=none;endFill=0;startSize=8;fillColor=#f8cecc;" edge="1" parent="1" source="zAHappLqphE8D_-9Nf3t-66" target="zAHappLqphE8D_-9Nf3t-72">
          <mxGeometry relative="1" as="geometry" />
        </mxCell>
        <mxCell id="zAHappLqphE8D_-9Nf3t-66" value="老师" style="shape=umlActor;verticalLabelPosition=bottom;verticalAlign=top;html=1;align=center;fontFamily=Helvetica;fontSize=17;fillColor=#f8cecc;strokeColor=#b85450;" vertex="1" parent="1">
          <mxGeometry x="163" y="2223" width="30" height="60" as="geometry" />
        </mxCell>
        <mxCell id="zAHappLqphE8D_-9Nf3t-104" style="edgeStyle=none;shape=connector;curved=0;rounded=0;orthogonalLoop=1;jettySize=auto;html=1;exitX=0.5;exitY=1;exitDx=0;exitDy=0;labelBackgroundColor=default;strokeColor=#000000;strokeWidth=1;align=center;verticalAlign=bottom;fontFamily=Helvetica;fontSize=18;fontColor=default;startArrow=none;startFill=0;endArrow=none;startSize=8;fillColor=#f8cecc;dashed=1;endFill=0;" edge="1" parent="1" source="zAHappLqphE8D_-9Nf3t-67" target="zAHappLqphE8D_-9Nf3t-74">
          <mxGeometry relative="1" as="geometry" />
        </mxCell>
        <mxCell id="zAHappLqphE8D_-9Nf3t-67" value="系统选课界面" style="html=1;whiteSpace=wrap;align=center;verticalAlign=top;fontFamily=Helvetica;fontSize=17;fillColor=#fff2cc;strokeColor=#FF6666;" vertex="1" parent="1">
          <mxGeometry x="376.5" y="2236" width="110" height="50" as="geometry" />
        </mxCell>
        <mxCell id="zAHappLqphE8D_-9Nf3t-108" style="edgeStyle=none;shape=connector;curved=0;rounded=0;orthogonalLoop=1;jettySize=auto;html=1;dashed=1;labelBackgroundColor=default;strokeColor=#000000;strokeWidth=1;align=center;verticalAlign=bottom;fontFamily=Helvetica;fontSize=18;fontColor=default;startArrow=none;startFill=0;endArrow=none;endFill=0;startSize=8;fillColor=#f8cecc;" edge="1" parent="1" source="zAHappLqphE8D_-9Nf3t-72">
          <mxGeometry relative="1" as="geometry">
            <mxPoint x="177" y="2755" as="targetPoint" />
          </mxGeometry>
        </mxCell>
        <mxCell id="zAHappLqphE8D_-9Nf3t-72" value="" style="html=1;points=[[0,0,0,0,5],[0,1,0,0,-5],[1,0,0,0,5],[1,1,0,0,-5]];perimeter=orthogonalPerimeter;outlineConnect=0;targetShapes=umlLifeline;portConstraint=eastwest;newEdgeStyle={&quot;curved&quot;:0,&quot;rounded&quot;:0};align=left;verticalAlign=top;fontFamily=Helvetica;fontSize=11;fontColor=default;fillColor=none;gradientColor=none;strokeColor=#CC6600;" vertex="1" parent="1">
          <mxGeometry x="173" y="2349" width="10" height="113" as="geometry" />
        </mxCell>
        <mxCell id="zAHappLqphE8D_-9Nf3t-106" style="edgeStyle=none;shape=connector;curved=0;rounded=0;orthogonalLoop=1;jettySize=auto;html=1;exitX=0.5;exitY=1;exitDx=0;exitDy=0;dashed=1;labelBackgroundColor=default;strokeColor=#000000;strokeWidth=1;align=center;verticalAlign=bottom;fontFamily=Helvetica;fontSize=18;fontColor=default;startArrow=none;startFill=0;endArrow=none;endFill=0;startSize=8;fillColor=#f8cecc;" edge="1" parent="1" source="zAHappLqphE8D_-9Nf3t-80" target="zAHappLqphE8D_-9Nf3t-81">
          <mxGeometry relative="1" as="geometry" />
        </mxCell>
        <mxCell id="zAHappLqphE8D_-9Nf3t-80" value="系统选课界面" style="html=1;whiteSpace=wrap;align=center;verticalAlign=top;fontFamily=Helvetica;fontSize=17;fillColor=#fff2cc;strokeColor=#FF6666;" vertex="1" parent="1">
          <mxGeometry x="623" y="2236" width="110" height="50" as="geometry" />
        </mxCell>
        <mxCell id="zAHappLqphE8D_-9Nf3t-110" style="edgeStyle=none;shape=connector;curved=0;rounded=0;orthogonalLoop=1;jettySize=auto;html=1;dashed=1;labelBackgroundColor=default;strokeColor=#000000;strokeWidth=1;align=center;verticalAlign=bottom;fontFamily=Helvetica;fontSize=18;fontColor=default;startArrow=none;startFill=0;endArrow=none;endFill=0;startSize=8;fillColor=#f8cecc;" edge="1" parent="1">
          <mxGeometry relative="1" as="geometry">
            <mxPoint x="678" y="2751" as="targetPoint" />
            <mxPoint x="678" y="2614" as="sourcePoint" />
          </mxGeometry>
        </mxCell>
        <mxCell id="zAHappLqphE8D_-9Nf3t-81" value="" style="html=1;points=[[0,0,0,0,5],[0,1,0,0,-5],[1,0,0,0,5],[1,1,0,0,-5]];perimeter=orthogonalPerimeter;outlineConnect=0;targetShapes=umlLifeline;portConstraint=eastwest;newEdgeStyle={&quot;curved&quot;:0,&quot;rounded&quot;:0};align=left;verticalAlign=top;fontFamily=Helvetica;fontSize=11;fontColor=default;fillColor=none;gradientColor=none;strokeColor=#CC6600;" vertex="1" parent="1">
          <mxGeometry x="673" y="2528" width="10" height="89" as="geometry" />
        </mxCell>
        <mxCell id="zAHappLqphE8D_-9Nf3t-107" style="edgeStyle=none;shape=connector;curved=0;rounded=0;orthogonalLoop=1;jettySize=auto;html=1;exitX=0.5;exitY=1;exitDx=0;exitDy=0;dashed=1;labelBackgroundColor=default;strokeColor=#000000;strokeWidth=1;align=center;verticalAlign=bottom;fontFamily=Helvetica;fontSize=18;fontColor=default;startArrow=none;startFill=0;endArrow=none;endFill=0;startSize=8;fillColor=#f8cecc;" edge="1" parent="1" source="zAHappLqphE8D_-9Nf3t-85" target="zAHappLqphE8D_-9Nf3t-86">
          <mxGeometry relative="1" as="geometry" />
        </mxCell>
        <mxCell id="zAHappLqphE8D_-9Nf3t-85" value="系统选课界面" style="html=1;whiteSpace=wrap;align=center;verticalAlign=top;fontFamily=Helvetica;fontSize=17;fillColor=#fff2cc;strokeColor=#FF6666;" vertex="1" parent="1">
          <mxGeometry x="889" y="2236" width="110" height="50" as="geometry" />
        </mxCell>
        <mxCell id="zAHappLqphE8D_-9Nf3t-111" style="edgeStyle=none;shape=connector;curved=0;rounded=0;orthogonalLoop=1;jettySize=auto;html=1;dashed=1;labelBackgroundColor=default;strokeColor=#000000;strokeWidth=1;align=center;verticalAlign=bottom;fontFamily=Helvetica;fontSize=18;fontColor=default;startArrow=none;startFill=0;endArrow=none;endFill=0;startSize=8;fillColor=#f8cecc;" edge="1" parent="1">
          <mxGeometry relative="1" as="geometry">
            <mxPoint x="944" y="2745" as="targetPoint" />
            <mxPoint x="944" y="2702" as="sourcePoint" />
          </mxGeometry>
        </mxCell>
        <mxCell id="zAHappLqphE8D_-9Nf3t-86" value="" style="html=1;points=[[0,0,0,0,5],[0,1,0,0,-5],[1,0,0,0,5],[1,1,0,0,-5]];perimeter=orthogonalPerimeter;outlineConnect=0;targetShapes=umlLifeline;portConstraint=eastwest;newEdgeStyle={&quot;curved&quot;:0,&quot;rounded&quot;:0};align=left;verticalAlign=top;fontFamily=Helvetica;fontSize=11;fontColor=default;fillColor=none;gradientColor=none;strokeColor=#CC6600;" vertex="1" parent="1">
          <mxGeometry x="939" y="2605" width="10" height="99" as="geometry" />
        </mxCell>
        <mxCell id="zAHappLqphE8D_-9Nf3t-92" value="1：登录" style="html=1;verticalAlign=bottom;startArrow=oval;startFill=1;endArrow=block;startSize=8;curved=0;rounded=0;labelBackgroundColor=default;strokeColor=#b85450;strokeWidth=2;align=center;fontFamily=Helvetica;fontSize=18;fontColor=default;fillColor=#f8cecc;shape=connector;entryX=0;entryY=0;entryDx=0;entryDy=5;entryPerimeter=0;" edge="1" parent="1" source="zAHappLqphE8D_-9Nf3t-72" target="zAHappLqphE8D_-9Nf3t-74">
          <mxGeometry width="60" relative="1" as="geometry">
            <mxPoint x="173" y="2460" as="sourcePoint" />
            <mxPoint x="273" y="2507" as="targetPoint" />
          </mxGeometry>
        </mxCell>
        <mxCell id="zAHappLqphE8D_-9Nf3t-97" value="2:填写课题内容" style="html=1;verticalAlign=bottom;startArrow=oval;startFill=1;endArrow=block;startSize=8;curved=0;rounded=0;labelBackgroundColor=default;strokeColor=#b85450;strokeWidth=2;align=center;fontFamily=Helvetica;fontSize=18;fontColor=default;fillColor=#f8cecc;shape=connector;exitX=1;exitY=1;exitDx=0;exitDy=-5;exitPerimeter=0;" edge="1" parent="1" source="zAHappLqphE8D_-9Nf3t-74" target="zAHappLqphE8D_-9Nf3t-81">
          <mxGeometry x="0.0027" width="60" relative="1" as="geometry">
            <mxPoint x="472" y="2558" as="sourcePoint" />
            <mxPoint x="532" y="2558" as="targetPoint" />
            <mxPoint as="offset" />
          </mxGeometry>
        </mxCell>
        <mxCell id="zAHappLqphE8D_-9Nf3t-98" value="3：提交课题申请表" style="html=1;verticalAlign=bottom;startArrow=oval;startFill=1;endArrow=block;startSize=8;curved=0;rounded=0;labelBackgroundColor=default;strokeColor=#b85450;strokeWidth=2;align=center;fontFamily=Helvetica;fontSize=18;fontColor=default;fillColor=#f8cecc;shape=connector;exitX=1;exitY=1;exitDx=0;exitDy=-5;exitPerimeter=0;entryX=0;entryY=0;entryDx=0;entryDy=5;entryPerimeter=0;" edge="1" parent="1" source="zAHappLqphE8D_-9Nf3t-81" target="zAHappLqphE8D_-9Nf3t-86">
          <mxGeometry x="0.0033" width="60" relative="1" as="geometry">
            <mxPoint x="700" y="2626" as="sourcePoint" />
            <mxPoint x="941" y="2612" as="targetPoint" />
            <mxPoint as="offset" />
          </mxGeometry>
        </mxCell>
        <mxCell id="zAHappLqphE8D_-9Nf3t-100" style="edgeStyle=none;shape=connector;curved=0;rounded=0;orthogonalLoop=1;jettySize=auto;html=1;exitX=0;exitY=1;exitDx=0;exitDy=-5;exitPerimeter=0;labelBackgroundColor=default;strokeColor=#b85450;strokeWidth=2;align=center;verticalAlign=bottom;fontFamily=Helvetica;fontSize=18;fontColor=default;startArrow=oval;startFill=1;endArrow=block;startSize=8;fillColor=#f8cecc;" edge="1" parent="1" source="zAHappLqphE8D_-9Nf3t-72" target="zAHappLqphE8D_-9Nf3t-72">
          <mxGeometry relative="1" as="geometry" />
        </mxCell>
        <mxCell id="zAHappLqphE8D_-9Nf3t-109" style="edgeStyle=none;shape=connector;curved=0;rounded=0;orthogonalLoop=1;jettySize=auto;html=1;dashed=1;labelBackgroundColor=default;strokeColor=#000000;strokeWidth=1;align=center;verticalAlign=bottom;fontFamily=Helvetica;fontSize=18;fontColor=default;startArrow=none;startFill=0;endArrow=none;endFill=0;startSize=8;fillColor=#f8cecc;" edge="1" parent="1" source="zAHappLqphE8D_-9Nf3t-74">
          <mxGeometry relative="1" as="geometry">
            <mxPoint x="432" y="2744" as="targetPoint" />
          </mxGeometry>
        </mxCell>
        <mxCell id="zAHappLqphE8D_-9Nf3t-74" value="" style="html=1;points=[[0,0,0,0,5],[0,1,0,0,-5],[1,0,0,0,5],[1,1,0,0,-5]];perimeter=orthogonalPerimeter;outlineConnect=0;targetShapes=umlLifeline;portConstraint=eastwest;newEdgeStyle={&quot;curved&quot;:0,&quot;rounded&quot;:0};align=left;verticalAlign=top;fontFamily=Helvetica;fontSize=11;fontColor=default;fillColor=none;gradientColor=none;strokeColor=#CC6600;" vertex="1" parent="1">
          <mxGeometry x="426.5" y="2457" width="10" height="80" as="geometry" />
        </mxCell>
        <mxCell id="zAHappLqphE8D_-9Nf3t-112" style="edgeStyle=none;shape=connector;curved=0;rounded=0;orthogonalLoop=1;jettySize=auto;html=1;dashed=1;labelBackgroundColor=default;strokeColor=#000000;strokeWidth=1;align=center;verticalAlign=bottom;fontFamily=Helvetica;fontSize=18;fontColor=default;startArrow=none;startFill=0;endArrow=none;endFill=0;startSize=8;fillColor=#f8cecc;" edge="1" parent="1" source="zAHappLqphE8D_-9Nf3t-113" target="zAHappLqphE8D_-9Nf3t-117">
          <mxGeometry relative="1" as="geometry" />
        </mxCell>
        <mxCell id="zAHappLqphE8D_-9Nf3t-113" value="：学生" style="shape=umlActor;verticalLabelPosition=bottom;verticalAlign=top;html=1;align=center;fontFamily=Helvetica;fontSize=17;fillColor=#f8cecc;strokeColor=#b85450;" vertex="1" parent="1">
          <mxGeometry x="157" y="3158" width="30" height="60" as="geometry" />
        </mxCell>
        <mxCell id="zAHappLqphE8D_-9Nf3t-114" style="edgeStyle=none;shape=connector;curved=0;rounded=0;orthogonalLoop=1;jettySize=auto;html=1;exitX=0.5;exitY=1;exitDx=0;exitDy=0;labelBackgroundColor=default;strokeColor=#000000;strokeWidth=1;align=center;verticalAlign=bottom;fontFamily=Helvetica;fontSize=18;fontColor=default;startArrow=none;startFill=0;endArrow=none;startSize=8;fillColor=#f8cecc;dashed=1;endFill=0;" edge="1" parent="1" source="zAHappLqphE8D_-9Nf3t-115" target="zAHappLqphE8D_-9Nf3t-131">
          <mxGeometry relative="1" as="geometry" />
        </mxCell>
        <mxCell id="zAHappLqphE8D_-9Nf3t-115" value="毕业设计课题选择页面" style="html=1;whiteSpace=wrap;align=center;verticalAlign=top;fontFamily=Helvetica;fontSize=17;fillColor=#fff2cc;strokeColor=#FF6666;" vertex="1" parent="1">
          <mxGeometry x="370.5" y="3171" width="110" height="50" as="geometry" />
        </mxCell>
        <mxCell id="zAHappLqphE8D_-9Nf3t-116" style="edgeStyle=none;shape=connector;curved=0;rounded=0;orthogonalLoop=1;jettySize=auto;html=1;dashed=1;labelBackgroundColor=default;strokeColor=#000000;strokeWidth=1;align=center;verticalAlign=bottom;fontFamily=Helvetica;fontSize=18;fontColor=default;startArrow=none;startFill=0;endArrow=none;endFill=0;startSize=8;fillColor=#f8cecc;" edge="1" parent="1" source="DUBPBKSYXTcEhqNT5P82-7">
          <mxGeometry relative="1" as="geometry">
            <mxPoint x="171" y="3726" as="targetPoint" />
          </mxGeometry>
        </mxCell>
        <mxCell id="zAHappLqphE8D_-9Nf3t-117" value="" style="html=1;points=[[0,0,0,0,5],[0,1,0,0,-5],[1,0,0,0,5],[1,1,0,0,-5]];perimeter=orthogonalPerimeter;outlineConnect=0;targetShapes=umlLifeline;portConstraint=eastwest;newEdgeStyle={&quot;curved&quot;:0,&quot;rounded&quot;:0};align=left;verticalAlign=top;fontFamily=Helvetica;fontSize=11;fontColor=default;fillColor=none;gradientColor=none;strokeColor=#CC6600;" vertex="1" parent="1">
          <mxGeometry x="167" y="3284" width="10" height="113" as="geometry" />
        </mxCell>
        <mxCell id="zAHappLqphE8D_-9Nf3t-118" style="edgeStyle=none;shape=connector;curved=0;rounded=0;orthogonalLoop=1;jettySize=auto;html=1;exitX=0.5;exitY=1;exitDx=0;exitDy=0;dashed=1;labelBackgroundColor=default;strokeColor=#000000;strokeWidth=1;align=center;verticalAlign=bottom;fontFamily=Helvetica;fontSize=18;fontColor=default;startArrow=none;startFill=0;endArrow=none;endFill=0;startSize=8;fillColor=#f8cecc;" edge="1" parent="1" source="zAHappLqphE8D_-9Nf3t-119" target="zAHappLqphE8D_-9Nf3t-121">
          <mxGeometry relative="1" as="geometry" />
        </mxCell>
        <mxCell id="zAHappLqphE8D_-9Nf3t-119" value="毕业设计课题库" style="html=1;whiteSpace=wrap;align=center;verticalAlign=top;fontFamily=Helvetica;fontSize=17;fillColor=#fff2cc;strokeColor=#FF6666;" vertex="1" parent="1">
          <mxGeometry x="617" y="3171" width="110" height="50" as="geometry" />
        </mxCell>
        <mxCell id="zAHappLqphE8D_-9Nf3t-120" style="edgeStyle=none;shape=connector;curved=0;rounded=0;orthogonalLoop=1;jettySize=auto;html=1;dashed=1;labelBackgroundColor=default;strokeColor=#000000;strokeWidth=1;align=center;verticalAlign=bottom;fontFamily=Helvetica;fontSize=18;fontColor=default;startArrow=none;startFill=0;endArrow=none;endFill=0;startSize=8;fillColor=#f8cecc;" edge="1" parent="1" source="DUBPBKSYXTcEhqNT5P82-2">
          <mxGeometry relative="1" as="geometry">
            <mxPoint x="672" y="3735" as="targetPoint" />
            <mxPoint x="672" y="3549" as="sourcePoint" />
          </mxGeometry>
        </mxCell>
        <mxCell id="zAHappLqphE8D_-9Nf3t-121" value="" style="html=1;points=[[0,0,0,0,5],[0,1,0,0,-5],[1,0,0,0,5],[1,1,0,0,-5]];perimeter=orthogonalPerimeter;outlineConnect=0;targetShapes=umlLifeline;portConstraint=eastwest;newEdgeStyle={&quot;curved&quot;:0,&quot;rounded&quot;:0};align=left;verticalAlign=top;fontFamily=Helvetica;fontSize=11;fontColor=default;fillColor=none;gradientColor=none;strokeColor=#CC6600;" vertex="1" parent="1">
          <mxGeometry x="667" y="3463" width="10" height="89" as="geometry" />
        </mxCell>
        <mxCell id="zAHappLqphE8D_-9Nf3t-122" style="edgeStyle=none;shape=connector;curved=0;rounded=0;orthogonalLoop=1;jettySize=auto;html=1;exitX=0.5;exitY=1;exitDx=0;exitDy=0;dashed=1;labelBackgroundColor=default;strokeColor=#000000;strokeWidth=1;align=center;verticalAlign=bottom;fontFamily=Helvetica;fontSize=18;fontColor=default;startArrow=none;startFill=0;endArrow=none;endFill=0;startSize=8;fillColor=#f8cecc;" edge="1" parent="1" source="zAHappLqphE8D_-9Nf3t-123" target="zAHappLqphE8D_-9Nf3t-125">
          <mxGeometry relative="1" as="geometry" />
        </mxCell>
        <mxCell id="zAHappLqphE8D_-9Nf3t-123" value="学生课题详单" style="html=1;whiteSpace=wrap;align=center;verticalAlign=top;fontFamily=Helvetica;fontSize=17;fillColor=#fff2cc;strokeColor=#FF6666;" vertex="1" parent="1">
          <mxGeometry x="883" y="3171" width="110" height="50" as="geometry" />
        </mxCell>
        <mxCell id="zAHappLqphE8D_-9Nf3t-124" style="edgeStyle=none;shape=connector;curved=0;rounded=0;orthogonalLoop=1;jettySize=auto;html=1;dashed=1;labelBackgroundColor=default;strokeColor=#000000;strokeWidth=1;align=center;verticalAlign=bottom;fontFamily=Helvetica;fontSize=18;fontColor=default;startArrow=none;startFill=0;endArrow=none;endFill=0;startSize=8;fillColor=#f8cecc;" edge="1" parent="1">
          <mxGeometry relative="1" as="geometry">
            <mxPoint x="938" y="3725" as="targetPoint" />
            <mxPoint x="938" y="3637" as="sourcePoint" />
          </mxGeometry>
        </mxCell>
        <mxCell id="zAHappLqphE8D_-9Nf3t-125" value="" style="html=1;points=[[0,0,0,0,5],[0,1,0,0,-5],[1,0,0,0,5],[1,1,0,0,-5]];perimeter=orthogonalPerimeter;outlineConnect=0;targetShapes=umlLifeline;portConstraint=eastwest;newEdgeStyle={&quot;curved&quot;:0,&quot;rounded&quot;:0};align=left;verticalAlign=top;fontFamily=Helvetica;fontSize=11;fontColor=default;fillColor=none;gradientColor=none;strokeColor=#CC6600;" vertex="1" parent="1">
          <mxGeometry x="933" y="3540" width="10" height="99" as="geometry" />
        </mxCell>
        <mxCell id="zAHappLqphE8D_-9Nf3t-126" value="1：登录" style="html=1;verticalAlign=bottom;startArrow=oval;startFill=1;endArrow=block;startSize=8;curved=0;rounded=0;labelBackgroundColor=default;strokeColor=#b85450;strokeWidth=2;align=center;fontFamily=Helvetica;fontSize=18;fontColor=default;fillColor=#f8cecc;shape=connector;entryX=0;entryY=0;entryDx=0;entryDy=5;entryPerimeter=0;" edge="1" parent="1" source="zAHappLqphE8D_-9Nf3t-117" target="zAHappLqphE8D_-9Nf3t-131">
          <mxGeometry width="60" relative="1" as="geometry">
            <mxPoint x="167" y="3395" as="sourcePoint" />
            <mxPoint x="267" y="3442" as="targetPoint" />
          </mxGeometry>
        </mxCell>
        <mxCell id="zAHappLqphE8D_-9Nf3t-127" value="2:查询课题" style="html=1;verticalAlign=bottom;startArrow=oval;startFill=1;endArrow=block;startSize=8;curved=0;rounded=0;labelBackgroundColor=default;strokeColor=#b85450;strokeWidth=2;align=center;fontFamily=Helvetica;fontSize=18;fontColor=default;fillColor=#f8cecc;shape=connector;exitX=1;exitY=1;exitDx=0;exitDy=-5;exitPerimeter=0;" edge="1" parent="1" source="zAHappLqphE8D_-9Nf3t-131" target="zAHappLqphE8D_-9Nf3t-121">
          <mxGeometry width="60" relative="1" as="geometry">
            <mxPoint x="466" y="3493" as="sourcePoint" />
            <mxPoint x="526" y="3493" as="targetPoint" />
          </mxGeometry>
        </mxCell>
        <mxCell id="zAHappLqphE8D_-9Nf3t-128" value="3：选择学生课题" style="html=1;verticalAlign=bottom;startArrow=oval;startFill=1;endArrow=block;startSize=8;curved=0;rounded=0;labelBackgroundColor=default;strokeColor=#b85450;strokeWidth=2;align=center;fontFamily=Helvetica;fontSize=18;fontColor=default;fillColor=#f8cecc;shape=connector;entryX=0;entryY=0;entryDx=0;entryDy=5;entryPerimeter=0;" edge="1" parent="1" source="zAHappLqphE8D_-9Nf3t-121" target="zAHappLqphE8D_-9Nf3t-125">
          <mxGeometry x="0.0033" width="60" relative="1" as="geometry">
            <mxPoint x="694" y="3561" as="sourcePoint" />
            <mxPoint x="935" y="3547" as="targetPoint" />
            <mxPoint as="offset" />
          </mxGeometry>
        </mxCell>
        <mxCell id="zAHappLqphE8D_-9Nf3t-129" style="edgeStyle=none;shape=connector;curved=0;rounded=0;orthogonalLoop=1;jettySize=auto;html=1;exitX=0;exitY=1;exitDx=0;exitDy=-5;exitPerimeter=0;labelBackgroundColor=default;strokeColor=#b85450;strokeWidth=2;align=center;verticalAlign=bottom;fontFamily=Helvetica;fontSize=18;fontColor=default;startArrow=oval;startFill=1;endArrow=block;startSize=8;fillColor=#f8cecc;" edge="1" parent="1" source="zAHappLqphE8D_-9Nf3t-117" target="zAHappLqphE8D_-9Nf3t-117">
          <mxGeometry relative="1" as="geometry" />
        </mxCell>
        <mxCell id="zAHappLqphE8D_-9Nf3t-130" style="edgeStyle=none;shape=connector;curved=0;rounded=0;orthogonalLoop=1;jettySize=auto;html=1;dashed=1;labelBackgroundColor=default;strokeColor=#000000;strokeWidth=1;align=center;verticalAlign=bottom;fontFamily=Helvetica;fontSize=18;fontColor=default;startArrow=none;startFill=0;endArrow=none;endFill=0;startSize=8;fillColor=#f8cecc;" edge="1" parent="1" source="zAHappLqphE8D_-9Nf3t-131">
          <mxGeometry relative="1" as="geometry">
            <mxPoint x="426" y="3730" as="targetPoint" />
          </mxGeometry>
        </mxCell>
        <mxCell id="zAHappLqphE8D_-9Nf3t-131" value="" style="html=1;points=[[0,0,0,0,5],[0,1,0,0,-5],[1,0,0,0,5],[1,1,0,0,-5]];perimeter=orthogonalPerimeter;outlineConnect=0;targetShapes=umlLifeline;portConstraint=eastwest;newEdgeStyle={&quot;curved&quot;:0,&quot;rounded&quot;:0};align=left;verticalAlign=top;fontFamily=Helvetica;fontSize=11;fontColor=default;fillColor=none;gradientColor=none;strokeColor=#CC6600;" vertex="1" parent="1">
          <mxGeometry x="420.5" y="3392" width="10" height="80" as="geometry" />
        </mxCell>
        <mxCell id="zAHappLqphE8D_-9Nf3t-132" value="“毕业设计论文管理”系统" style="swimlane;whiteSpace=wrap;html=1;align=center;verticalAlign=top;fontFamily=Helvetica;fontSize=18;fontColor=default;fillColor=none;gradientColor=none;" vertex="1" parent="1">
          <mxGeometry x="284" y="112" width="874" height="604" as="geometry" />
        </mxCell>
        <mxCell id="zAHappLqphE8D_-9Nf3t-146" style="edgeStyle=none;shape=connector;curved=0;rounded=0;orthogonalLoop=1;jettySize=auto;html=1;exitX=0.5;exitY=0.5;exitDx=0;exitDy=0;exitPerimeter=0;entryX=0;entryY=0.5;entryDx=0;entryDy=0;labelBackgroundColor=default;strokeColor=#b85450;strokeWidth=2;align=center;verticalAlign=bottom;fontFamily=Helvetica;fontSize=18;fontColor=default;startArrow=none;startFill=0;endArrow=none;endFill=0;startSize=2;endSize=15;fillColor=#f8cecc;" edge="1" parent="1" source="zAHappLqphE8D_-9Nf3t-133" target="zAHappLqphE8D_-9Nf3t-144">
          <mxGeometry relative="1" as="geometry" />
        </mxCell>
        <mxCell id="zAHappLqphE8D_-9Nf3t-133" value="学生" style="shape=umlActor;verticalLabelPosition=bottom;verticalAlign=top;html=1;outlineConnect=0;strokeColor=#b85450;align=center;fontFamily=Helvetica;fontSize=18;startSize=23;fillColor=#f8cecc;" vertex="1" parent="1">
          <mxGeometry x="1145" y="4326" width="30" height="60" as="geometry" />
        </mxCell>
        <mxCell id="zAHappLqphE8D_-9Nf3t-138" value="&lt;p style=&quot;margin:0px;margin-top:4px;text-align:center;&quot;&gt;&lt;b style=&quot;font-size: 15px;&quot;&gt;中期报告&lt;/b&gt;&lt;/p&gt;&lt;hr size=&quot;1&quot;&gt;&lt;div style=&quot;height:2px;&quot;&gt;&lt;/div&gt;&lt;hr size=&quot;1&quot;&gt;&lt;div style=&quot;height:2px;&quot;&gt;&lt;/div&gt;" style="verticalAlign=top;align=left;overflow=fill;fontSize=12;fontFamily=Helvetica;html=1;whiteSpace=wrap;strokeColor=#FF0000;fontColor=default;startSize=26;fillColor=#fff2cc;" vertex="1" parent="1">
          <mxGeometry x="1662" y="4150.5" width="140" height="60" as="geometry" />
        </mxCell>
        <mxCell id="zAHappLqphE8D_-9Nf3t-140" value="&lt;p style=&quot;margin:0px;margin-top:4px;text-align:center;&quot;&gt;&lt;b style=&quot;font-size: 15px;&quot;&gt;毕业论文&lt;/b&gt;&lt;/p&gt;&lt;hr size=&quot;1&quot;&gt;&lt;div style=&quot;height:2px;&quot;&gt;&lt;/div&gt;&lt;hr size=&quot;1&quot;&gt;&lt;div style=&quot;height:2px;&quot;&gt;&lt;/div&gt;" style="verticalAlign=top;align=left;overflow=fill;fontSize=12;fontFamily=Helvetica;html=1;whiteSpace=wrap;strokeColor=#FF0000;fontColor=default;startSize=26;fillColor=#fff2cc;" vertex="1" parent="1">
          <mxGeometry x="1665" y="4324.5" width="140" height="60" as="geometry" />
        </mxCell>
        <mxCell id="zAHappLqphE8D_-9Nf3t-141" value="&lt;p style=&quot;margin:0px;margin-top:4px;text-align:center;&quot;&gt;&lt;b style=&quot;font-size: 15px;&quot;&gt;毕业设计课题库&lt;/b&gt;&lt;/p&gt;&lt;hr size=&quot;1&quot;&gt;&lt;div style=&quot;height:2px;&quot;&gt;&lt;/div&gt;&lt;hr size=&quot;1&quot;&gt;&lt;div style=&quot;height:2px;&quot;&gt;&lt;/div&gt;" style="verticalAlign=top;align=left;overflow=fill;fontSize=12;fontFamily=Helvetica;html=1;whiteSpace=wrap;strokeColor=#FF0000;fontColor=default;startSize=26;fillColor=#fff2cc;" vertex="1" parent="1">
          <mxGeometry x="1324" y="4146" width="140" height="60" as="geometry" />
        </mxCell>
        <mxCell id="zAHappLqphE8D_-9Nf3t-142" value="&lt;p style=&quot;margin:0px;margin-top:4px;text-align:center;&quot;&gt;&lt;b style=&quot;font-size: 15px;&quot;&gt;周进展&lt;/b&gt;&lt;/p&gt;&lt;hr size=&quot;1&quot;&gt;&lt;div style=&quot;height:2px;&quot;&gt;&lt;/div&gt;&lt;hr size=&quot;1&quot;&gt;&lt;div style=&quot;height:2px;&quot;&gt;&lt;/div&gt;" style="verticalAlign=top;align=left;overflow=fill;fontSize=12;fontFamily=Helvetica;html=1;whiteSpace=wrap;strokeColor=#FF0000;fontColor=default;startSize=26;fillColor=#fff2cc;" vertex="1" parent="1">
          <mxGeometry x="1662" y="4501.5" width="140" height="60" as="geometry" />
        </mxCell>
        <mxCell id="zAHappLqphE8D_-9Nf3t-145" style="edgeStyle=none;shape=connector;curved=0;rounded=0;orthogonalLoop=1;jettySize=auto;html=1;exitX=0.5;exitY=0;exitDx=0;exitDy=0;entryX=0.5;entryY=1;entryDx=0;entryDy=0;labelBackgroundColor=default;strokeColor=#b85450;strokeWidth=2;align=center;verticalAlign=bottom;fontFamily=Helvetica;fontSize=18;fontColor=default;startArrow=none;startFill=0;endArrow=diamondThin;endFill=0;startSize=2;fillColor=#f8cecc;endSize=15;" edge="1" parent="1" source="zAHappLqphE8D_-9Nf3t-144" target="zAHappLqphE8D_-9Nf3t-141">
          <mxGeometry relative="1" as="geometry" />
        </mxCell>
        <mxCell id="zAHappLqphE8D_-9Nf3t-148" style="edgeStyle=none;shape=connector;curved=0;rounded=0;orthogonalLoop=1;jettySize=auto;html=1;exitX=1;exitY=0.5;exitDx=0;exitDy=0;entryX=0;entryY=0.5;entryDx=0;entryDy=0;labelBackgroundColor=default;strokeColor=#b85450;strokeWidth=2;align=center;verticalAlign=bottom;fontFamily=Helvetica;fontSize=18;fontColor=default;startArrow=none;startFill=0;endArrow=none;endFill=0;startSize=2;endSize=15;fillColor=#f8cecc;" edge="1" parent="1" source="zAHappLqphE8D_-9Nf3t-144" target="zAHappLqphE8D_-9Nf3t-138">
          <mxGeometry relative="1" as="geometry" />
        </mxCell>
        <mxCell id="zAHappLqphE8D_-9Nf3t-149" style="edgeStyle=none;shape=connector;curved=0;rounded=0;orthogonalLoop=1;jettySize=auto;html=1;exitX=1;exitY=0.5;exitDx=0;exitDy=0;entryX=0;entryY=0.5;entryDx=0;entryDy=0;labelBackgroundColor=default;strokeColor=#b85450;strokeWidth=2;align=center;verticalAlign=bottom;fontFamily=Helvetica;fontSize=18;fontColor=default;startArrow=none;startFill=0;endArrow=none;endFill=0;startSize=2;endSize=15;fillColor=#f8cecc;" edge="1" parent="1" source="zAHappLqphE8D_-9Nf3t-144" target="zAHappLqphE8D_-9Nf3t-140">
          <mxGeometry relative="1" as="geometry" />
        </mxCell>
        <mxCell id="zAHappLqphE8D_-9Nf3t-150" style="edgeStyle=none;shape=connector;curved=0;rounded=0;orthogonalLoop=1;jettySize=auto;html=1;exitX=1;exitY=0.5;exitDx=0;exitDy=0;entryX=0;entryY=0.5;entryDx=0;entryDy=0;labelBackgroundColor=default;strokeColor=#b85450;strokeWidth=2;align=center;verticalAlign=bottom;fontFamily=Helvetica;fontSize=18;fontColor=default;startArrow=none;startFill=0;endArrow=none;endFill=0;startSize=2;endSize=15;fillColor=#f8cecc;" edge="1" parent="1" source="zAHappLqphE8D_-9Nf3t-144" target="zAHappLqphE8D_-9Nf3t-142">
          <mxGeometry relative="1" as="geometry" />
        </mxCell>
        <mxCell id="zAHappLqphE8D_-9Nf3t-144" value="&lt;p style=&quot;margin:0px;margin-top:4px;text-align:center;&quot;&gt;&lt;b style=&quot;font-size: 15px;&quot;&gt;毕业设计课题&lt;/b&gt;&lt;/p&gt;&lt;hr size=&quot;1&quot;&gt;&lt;div style=&quot;height:2px;&quot;&gt;&lt;/div&gt;&lt;hr size=&quot;1&quot;&gt;&lt;div style=&quot;height:2px;&quot;&gt;&lt;/div&gt;" style="verticalAlign=top;align=left;overflow=fill;fontSize=12;fontFamily=Helvetica;html=1;whiteSpace=wrap;strokeColor=#FF0000;fontColor=default;startSize=26;fillColor=#fff2cc;" vertex="1" parent="1">
          <mxGeometry x="1324" y="4326" width="140" height="60" as="geometry" />
        </mxCell>
        <mxCell id="zAHappLqphE8D_-9Nf3t-147" value="选择" style="text;html=1;align=center;verticalAlign=middle;resizable=0;points=[];autosize=1;strokeColor=none;fillColor=none;fontSize=18;fontFamily=Helvetica;fontColor=default;" vertex="1" parent="1">
          <mxGeometry x="1212" y="4319" width="54" height="34" as="geometry" />
        </mxCell>
        <mxCell id="zAHappLqphE8D_-9Nf3t-151" value="提交" style="text;html=1;align=center;verticalAlign=middle;resizable=0;points=[];autosize=1;strokeColor=none;fillColor=none;fontSize=18;fontFamily=Helvetica;fontColor=default;" vertex="1" parent="1">
          <mxGeometry x="1517" y="4215" width="54" height="34" as="geometry" />
        </mxCell>
        <mxCell id="zAHappLqphE8D_-9Nf3t-152" value="撰写" style="text;html=1;align=center;verticalAlign=middle;resizable=0;points=[];autosize=1;strokeColor=none;fillColor=none;fontSize=18;fontFamily=Helvetica;fontColor=default;" vertex="1" parent="1">
          <mxGeometry x="1551" y="4315" width="54" height="34" as="geometry" />
        </mxCell>
        <mxCell id="zAHappLqphE8D_-9Nf3t-153" value="汇报" style="text;html=1;align=center;verticalAlign=middle;resizable=0;points=[];autosize=1;strokeColor=none;fillColor=none;fontSize=18;fontFamily=Helvetica;fontColor=default;" vertex="1" parent="1">
          <mxGeometry x="1554" y="4413" width="54" height="34" as="geometry" />
        </mxCell>
        <mxCell id="zAHappLqphE8D_-9Nf3t-156" style="edgeStyle=none;shape=connector;curved=0;rounded=0;orthogonalLoop=1;jettySize=auto;html=1;exitX=0;exitY=0;exitDx=132;exitDy=60;exitPerimeter=0;entryX=0;entryY=0.5;entryDx=0;entryDy=0;labelBackgroundColor=default;strokeColor=#b85450;strokeWidth=2;align=center;verticalAlign=bottom;fontFamily=Helvetica;fontSize=18;fontColor=default;startArrow=none;startFill=0;endArrow=none;endFill=0;startSize=2;endSize=15;fillColor=#f8cecc;dashed=1;" edge="1" parent="1" source="zAHappLqphE8D_-9Nf3t-154" target="zAHappLqphE8D_-9Nf3t-141">
          <mxGeometry relative="1" as="geometry" />
        </mxCell>
        <mxCell id="zAHappLqphE8D_-9Nf3t-157" style="edgeStyle=none;shape=connector;curved=0;rounded=0;orthogonalLoop=1;jettySize=auto;html=1;exitX=1;exitY=1;exitDx=0;exitDy=0;exitPerimeter=0;entryX=0;entryY=0;entryDx=0;entryDy=0;dashed=1;labelBackgroundColor=default;strokeColor=#b85450;strokeWidth=2;align=center;verticalAlign=bottom;fontFamily=Helvetica;fontSize=18;fontColor=default;startArrow=none;startFill=0;endArrow=none;endFill=0;startSize=2;endSize=15;fillColor=#f8cecc;" edge="1" parent="1" source="zAHappLqphE8D_-9Nf3t-154" target="zAHappLqphE8D_-9Nf3t-144">
          <mxGeometry relative="1" as="geometry" />
        </mxCell>
        <mxCell id="zAHappLqphE8D_-9Nf3t-154" value="毕业设计题库包含多个毕业设计课题" style="shape=note;size=20;whiteSpace=wrap;html=1;strokeColor=#FF0000;align=center;verticalAlign=top;fontFamily=Helvetica;fontSize=18;fontColor=default;startSize=26;fillColor=#fff2cc;" vertex="1" parent="1">
          <mxGeometry x="1010" y="4115" width="132" height="100" as="geometry" />
        </mxCell>
        <mxCell id="zAHappLqphE8D_-9Nf3t-159" style="edgeStyle=none;shape=connector;curved=0;rounded=0;orthogonalLoop=1;jettySize=auto;html=1;exitX=0;exitY=0.5;exitDx=0;exitDy=0;exitPerimeter=0;entryX=1;entryY=0.75;entryDx=0;entryDy=0;dashed=1;labelBackgroundColor=default;strokeColor=#b85450;strokeWidth=2;align=center;verticalAlign=bottom;fontFamily=Helvetica;fontSize=18;fontColor=default;startArrow=none;startFill=0;endArrow=none;endFill=0;startSize=2;endSize=15;fillColor=#f8cecc;" edge="1" parent="1" source="zAHappLqphE8D_-9Nf3t-158" target="zAHappLqphE8D_-9Nf3t-138">
          <mxGeometry relative="1" as="geometry" />
        </mxCell>
        <mxCell id="zAHappLqphE8D_-9Nf3t-160" style="edgeStyle=none;shape=connector;curved=0;rounded=0;orthogonalLoop=1;jettySize=auto;html=1;exitX=0;exitY=0.5;exitDx=0;exitDy=0;exitPerimeter=0;dashed=1;labelBackgroundColor=default;strokeColor=#b85450;strokeWidth=2;align=center;verticalAlign=bottom;fontFamily=Helvetica;fontSize=18;fontColor=default;startArrow=none;startFill=0;endArrow=none;endFill=0;startSize=2;endSize=15;fillColor=#f8cecc;" edge="1" parent="1" source="zAHappLqphE8D_-9Nf3t-158" target="zAHappLqphE8D_-9Nf3t-140">
          <mxGeometry relative="1" as="geometry" />
        </mxCell>
        <mxCell id="zAHappLqphE8D_-9Nf3t-161" style="edgeStyle=none;shape=connector;curved=0;rounded=0;orthogonalLoop=1;jettySize=auto;html=1;exitX=0;exitY=0.5;exitDx=0;exitDy=0;exitPerimeter=0;entryX=1;entryY=0.5;entryDx=0;entryDy=0;dashed=1;labelBackgroundColor=default;strokeColor=#b85450;strokeWidth=2;align=center;verticalAlign=bottom;fontFamily=Helvetica;fontSize=18;fontColor=default;startArrow=none;startFill=0;endArrow=none;endFill=0;startSize=2;endSize=15;fillColor=#f8cecc;" edge="1" parent="1" source="zAHappLqphE8D_-9Nf3t-158" target="zAHappLqphE8D_-9Nf3t-142">
          <mxGeometry relative="1" as="geometry" />
        </mxCell>
        <mxCell id="zAHappLqphE8D_-9Nf3t-158" value="中期报告，周进展，毕业论文都是依据毕业设计课题" style="shape=note;size=20;whiteSpace=wrap;html=1;strokeColor=#FF0000;align=center;verticalAlign=top;fontFamily=Helvetica;fontSize=18;fontColor=default;startSize=26;fillColor=#fff2cc;" vertex="1" parent="1">
          <mxGeometry x="1957" y="4306" width="132" height="100" as="geometry" />
        </mxCell>
        <mxCell id="zAHappLqphE8D_-9Nf3t-168" style="edgeStyle=none;shape=connector;curved=0;rounded=0;orthogonalLoop=1;jettySize=auto;html=1;exitX=0.5;exitY=1;exitDx=0;exitDy=0;entryX=0.5;entryY=0;entryDx=0;entryDy=0;labelBackgroundColor=default;strokeColor=#b85450;strokeWidth=2;align=center;verticalAlign=bottom;fontFamily=Helvetica;fontSize=18;fontColor=default;startArrow=none;startFill=0;endArrow=open;endFill=0;startSize=12;endSize=12;fillColor=#f8cecc;" edge="1" parent="1" source="zAHappLqphE8D_-9Nf3t-164" target="zAHappLqphE8D_-9Nf3t-41">
          <mxGeometry relative="1" as="geometry" />
        </mxCell>
        <mxCell id="zAHappLqphE8D_-9Nf3t-175" style="edgeStyle=none;shape=connector;curved=0;rounded=0;orthogonalLoop=1;jettySize=auto;html=1;exitX=1;exitY=0.5;exitDx=0;exitDy=0;entryX=0;entryY=0.5;entryDx=0;entryDy=0;labelBackgroundColor=default;strokeColor=#b85450;strokeWidth=2;align=center;verticalAlign=bottom;fontFamily=Helvetica;fontSize=18;fontColor=default;startArrow=none;startFill=0;endArrow=open;endFill=0;startSize=12;endSize=12;fillColor=#f8cecc;" edge="1" parent="1" source="zAHappLqphE8D_-9Nf3t-164" target="zAHappLqphE8D_-9Nf3t-173">
          <mxGeometry relative="1" as="geometry" />
        </mxCell>
        <mxCell id="zAHappLqphE8D_-9Nf3t-164" value="验证" style="rhombus;whiteSpace=wrap;html=1;fontColor=#000000;fillColor=#ffffc0;strokeColor=#ff0000;align=center;verticalAlign=top;fontFamily=Helvetica;fontSize=18;startSize=26;" vertex="1" parent="1">
          <mxGeometry x="454" y="1272" width="80" height="40" as="geometry" />
        </mxCell>
        <mxCell id="zAHappLqphE8D_-9Nf3t-169" value="yes" style="text;html=1;align=center;verticalAlign=middle;resizable=0;points=[];autosize=1;strokeColor=none;fillColor=none;fontSize=18;fontFamily=Helvetica;fontColor=default;" vertex="1" parent="1">
          <mxGeometry x="489" y="1311" width="46" height="34" as="geometry" />
        </mxCell>
        <mxCell id="DUBPBKSYXTcEhqNT5P82-14" style="edgeStyle=orthogonalEdgeStyle;rounded=0;orthogonalLoop=1;jettySize=auto;html=1;exitX=1;exitY=0.5;exitDx=0;exitDy=0;entryX=0;entryY=0.5;entryDx=0;entryDy=0;fillColor=#f8cecc;strokeColor=#b85450;strokeWidth=2;" edge="1" parent="1" source="zAHappLqphE8D_-9Nf3t-173" target="DUBPBKSYXTcEhqNT5P82-11">
          <mxGeometry relative="1" as="geometry" />
        </mxCell>
        <mxCell id="zAHappLqphE8D_-9Nf3t-173" value="&lt;font style=&quot;font-size: 10px;&quot;&gt;提示账号不存在或者失效&lt;/font&gt;" style="rounded=1;whiteSpace=wrap;html=1;arcSize=40;fontColor=#000000;fillColor=#ffffc0;strokeColor=#ff0000;align=center;verticalAlign=top;fontFamily=Helvetica;fontSize=18;startSize=26;" vertex="1" parent="1">
          <mxGeometry x="611" y="1272" width="120" height="40" as="geometry" />
        </mxCell>
        <mxCell id="zAHappLqphE8D_-9Nf3t-179" style="edgeStyle=none;shape=connector;curved=0;rounded=0;orthogonalLoop=1;jettySize=auto;html=1;exitX=0.5;exitY=1;exitDx=0;exitDy=0;entryX=0;entryY=0.5;entryDx=0;entryDy=0;labelBackgroundColor=default;strokeColor=#b85450;strokeWidth=2;align=center;verticalAlign=bottom;fontFamily=Helvetica;fontSize=18;fontColor=default;startArrow=none;startFill=0;endArrow=open;endFill=0;startSize=12;endSize=12;fillColor=#f8cecc;" edge="1" parent="1" source="zAHappLqphE8D_-9Nf3t-177" target="zAHappLqphE8D_-9Nf3t-62">
          <mxGeometry relative="1" as="geometry">
            <Array as="points">
              <mxPoint x="317" y="1897" />
            </Array>
          </mxGeometry>
        </mxCell>
        <mxCell id="zAHappLqphE8D_-9Nf3t-177" value="取消录入" style="rounded=1;whiteSpace=wrap;html=1;arcSize=40;fontColor=#000000;fillColor=#ffffc0;strokeColor=#ff0000;align=center;verticalAlign=top;fontFamily=Helvetica;fontSize=11;" vertex="1" parent="1">
          <mxGeometry x="256.5" y="1789" width="120" height="40" as="geometry" />
        </mxCell>
        <mxCell id="zAHappLqphE8D_-9Nf3t-181" value="yes" style="text;html=1;align=center;verticalAlign=middle;resizable=0;points=[];autosize=1;strokeColor=none;fillColor=none;fontSize=18;fontFamily=Helvetica;fontColor=default;" vertex="1" parent="1">
          <mxGeometry x="493" y="1739" width="46" height="34" as="geometry" />
        </mxCell>
        <mxCell id="zAHappLqphE8D_-9Nf3t-182" value="n" style="text;html=1;align=center;verticalAlign=middle;resizable=0;points=[];autosize=1;strokeColor=none;fillColor=none;fontSize=18;fontFamily=Helvetica;fontColor=default;" vertex="1" parent="1">
          <mxGeometry x="1323" y="4199" width="28" height="34" as="geometry" />
        </mxCell>
        <mxCell id="zAHappLqphE8D_-9Nf3t-183" value="1" style="text;html=1;align=center;verticalAlign=middle;resizable=0;points=[];autosize=1;strokeColor=none;fillColor=none;fontSize=18;fontFamily=Helvetica;fontColor=default;" vertex="1" parent="1">
          <mxGeometry x="1327" y="4383" width="28" height="34" as="geometry" />
        </mxCell>
        <mxCell id="zAHappLqphE8D_-9Nf3t-184" value="1" style="text;html=1;align=center;verticalAlign=middle;resizable=0;points=[];autosize=1;strokeColor=none;fillColor=none;fontSize=18;fontFamily=Helvetica;fontColor=default;" vertex="1" parent="1">
          <mxGeometry x="1713" y="4385" width="28" height="34" as="geometry" />
        </mxCell>
        <mxCell id="zAHappLqphE8D_-9Nf3t-185" value="n" style="text;html=1;align=center;verticalAlign=middle;resizable=0;points=[];autosize=1;strokeColor=none;fillColor=none;fontSize=18;fontFamily=Helvetica;fontColor=default;" vertex="1" parent="1">
          <mxGeometry x="1665" y="4559" width="28" height="34" as="geometry" />
        </mxCell>
        <mxCell id="zAHappLqphE8D_-9Nf3t-186" value="n" style="text;html=1;align=center;verticalAlign=middle;resizable=0;points=[];autosize=1;strokeColor=none;fillColor=none;fontSize=18;fontFamily=Helvetica;fontColor=default;" vertex="1" parent="1">
          <mxGeometry x="1661" y="4213" width="28" height="34" as="geometry" />
        </mxCell>
        <mxCell id="DUBPBKSYXTcEhqNT5P82-1" value="&lt;font style=&quot;font-size: 13px;&quot;&gt;&amp;lt;&amp;lt;include&amp;gt;&amp;gt;&lt;/font&gt;" style="endArrow=open;endSize=12;dashed=1;html=1;rounded=0;exitX=0.98;exitY=0.353;exitDx=0;exitDy=0;entryX=0;entryY=1;entryDx=0;entryDy=0;strokeColor=#b85450;fillColor=#f8cecc;strokeWidth=2;exitPerimeter=0;" edge="1" parent="1" source="6Lgxc9Jcnkx1HR9WivYI-10">
          <mxGeometry x="0.0212" y="14" width="160" relative="1" as="geometry">
            <mxPoint x="473" y="525" as="sourcePoint" />
            <mxPoint x="692" y="392" as="targetPoint" />
            <mxPoint as="offset" />
          </mxGeometry>
        </mxCell>
        <mxCell id="DUBPBKSYXTcEhqNT5P82-3" value="" style="edgeStyle=none;shape=connector;curved=0;rounded=0;orthogonalLoop=1;jettySize=auto;html=1;dashed=1;labelBackgroundColor=default;strokeColor=#000000;strokeWidth=1;align=center;verticalAlign=bottom;fontFamily=Helvetica;fontSize=18;fontColor=default;startArrow=none;startFill=0;endArrow=none;endFill=0;startSize=8;fillColor=#f8cecc;" edge="1" parent="1" target="DUBPBKSYXTcEhqNT5P82-2">
          <mxGeometry relative="1" as="geometry">
            <mxPoint x="672" y="3686" as="targetPoint" />
            <mxPoint x="672" y="3549" as="sourcePoint" />
          </mxGeometry>
        </mxCell>
        <mxCell id="DUBPBKSYXTcEhqNT5P82-2" value="" style="html=1;points=[[0,0,0,0,5],[0,1,0,0,-5],[1,0,0,0,5],[1,1,0,0,-5]];perimeter=orthogonalPerimeter;outlineConnect=0;targetShapes=umlLifeline;portConstraint=eastwest;newEdgeStyle={&quot;curved&quot;:0,&quot;rounded&quot;:0};align=left;verticalAlign=top;fontFamily=Helvetica;fontSize=11;fontColor=default;fillColor=none;gradientColor=none;strokeColor=#CC6600;" vertex="1" parent="1">
          <mxGeometry x="666" y="3630" width="10" height="33" as="geometry" />
        </mxCell>
        <mxCell id="DUBPBKSYXTcEhqNT5P82-4" style="edgeStyle=orthogonalEdgeStyle;rounded=0;orthogonalLoop=1;jettySize=auto;html=1;curved=0;exitX=0;exitY=1;exitDx=0;exitDy=-5;exitPerimeter=0;entryX=1;entryY=0;entryDx=0;entryDy=5;entryPerimeter=0;strokeWidth=2;fillColor=#f8cecc;strokeColor=#b85450;dashed=1;" edge="1" parent="1" source="zAHappLqphE8D_-9Nf3t-125" target="DUBPBKSYXTcEhqNT5P82-2">
          <mxGeometry relative="1" as="geometry" />
        </mxCell>
        <mxCell id="DUBPBKSYXTcEhqNT5P82-5" value="&lt;font style=&quot;font-size: 17px;&quot;&gt;4：保存课题信息&lt;/font&gt;" style="text;html=1;align=center;verticalAlign=middle;resizable=0;points=[];autosize=1;strokeColor=none;fillColor=none;" vertex="1" parent="1">
          <mxGeometry x="726" y="3601" width="146" height="32" as="geometry" />
        </mxCell>
        <mxCell id="DUBPBKSYXTcEhqNT5P82-8" value="" style="edgeStyle=none;shape=connector;curved=0;rounded=0;orthogonalLoop=1;jettySize=auto;html=1;dashed=1;labelBackgroundColor=default;strokeColor=#000000;strokeWidth=1;align=center;verticalAlign=bottom;fontFamily=Helvetica;fontSize=18;fontColor=default;startArrow=none;startFill=0;endArrow=none;endFill=0;startSize=8;fillColor=#f8cecc;" edge="1" parent="1" source="zAHappLqphE8D_-9Nf3t-117" target="DUBPBKSYXTcEhqNT5P82-7">
          <mxGeometry relative="1" as="geometry">
            <mxPoint x="171" y="3726" as="targetPoint" />
            <mxPoint x="171" y="3397" as="sourcePoint" />
          </mxGeometry>
        </mxCell>
        <mxCell id="DUBPBKSYXTcEhqNT5P82-7" value="" style="html=1;points=[[0,0,0,0,5],[0,1,0,0,-5],[1,0,0,0,5],[1,1,0,0,-5]];perimeter=orthogonalPerimeter;outlineConnect=0;targetShapes=umlLifeline;portConstraint=eastwest;newEdgeStyle={&quot;curved&quot;:0,&quot;rounded&quot;:0};align=left;verticalAlign=top;fontFamily=Helvetica;fontSize=11;fontColor=default;fillColor=none;gradientColor=none;strokeColor=#CC6600;" vertex="1" parent="1">
          <mxGeometry x="167" y="3654" width="10" height="43" as="geometry" />
        </mxCell>
        <mxCell id="DUBPBKSYXTcEhqNT5P82-9" style="edgeStyle=orthogonalEdgeStyle;rounded=0;orthogonalLoop=1;jettySize=auto;html=1;curved=0;exitX=0;exitY=1;exitDx=0;exitDy=-5;exitPerimeter=0;entryX=1;entryY=0;entryDx=0;entryDy=5;entryPerimeter=0;strokeWidth=2;dashed=1;fillColor=#f8cecc;strokeColor=#b85450;" edge="1" parent="1" source="DUBPBKSYXTcEhqNT5P82-2" target="DUBPBKSYXTcEhqNT5P82-7">
          <mxGeometry relative="1" as="geometry" />
        </mxCell>
        <mxCell id="DUBPBKSYXTcEhqNT5P82-10" value="&lt;font style=&quot;font-size: 15px;&quot;&gt;5： 返回课题信息&lt;/font&gt;" style="text;html=1;align=center;verticalAlign=middle;resizable=0;points=[];autosize=1;strokeColor=none;fillColor=none;" vertex="1" parent="1">
          <mxGeometry x="270" y="3624" width="135" height="30" as="geometry" />
        </mxCell>
        <mxCell id="DUBPBKSYXTcEhqNT5P82-12" style="edgeStyle=orthogonalEdgeStyle;rounded=0;orthogonalLoop=1;jettySize=auto;html=1;exitX=0.5;exitY=0;exitDx=0;exitDy=0;entryX=1;entryY=0.5;entryDx=0;entryDy=0;strokeWidth=2;fillColor=#f8cecc;strokeColor=#b85450;" edge="1" parent="1" source="DUBPBKSYXTcEhqNT5P82-11" target="zAHappLqphE8D_-9Nf3t-38">
          <mxGeometry relative="1" as="geometry" />
        </mxCell>
        <mxCell id="DUBPBKSYXTcEhqNT5P82-15" style="edgeStyle=orthogonalEdgeStyle;shape=connector;rounded=0;orthogonalLoop=1;jettySize=auto;html=1;exitX=0.5;exitY=1;exitDx=0;exitDy=0;entryX=1;entryY=0.5;entryDx=0;entryDy=0;labelBackgroundColor=default;strokeColor=#b85450;strokeWidth=2;align=center;verticalAlign=middle;fontFamily=Helvetica;fontSize=11;fontColor=default;endArrow=classic;fillColor=#f8cecc;" edge="1" parent="1" source="DUBPBKSYXTcEhqNT5P82-11" target="zAHappLqphE8D_-9Nf3t-62">
          <mxGeometry relative="1" as="geometry" />
        </mxCell>
        <mxCell id="DUBPBKSYXTcEhqNT5P82-11" value="&lt;font style=&quot;font-size: 12px;&quot;&gt;重新登录？&lt;/font&gt;" style="rhombus;whiteSpace=wrap;html=1;fontColor=#000000;fillColor=#ffffc0;strokeColor=#ff0000;align=center;verticalAlign=top;fontFamily=Helvetica;fontSize=18;startSize=26;" vertex="1" parent="1">
          <mxGeometry x="811" y="1272" width="80" height="40" as="geometry" />
        </mxCell>
        <mxCell id="DUBPBKSYXTcEhqNT5P82-13" value="yes" style="text;html=1;align=center;verticalAlign=middle;resizable=0;points=[];autosize=1;strokeColor=none;fillColor=none;" vertex="1" parent="1">
          <mxGeometry x="845" y="1214" width="37" height="26" as="geometry" />
        </mxCell>
      </root>
    </mxGraphModel>
  </diagram>
  <diagram id="5uV3Q6qPB6g6c2rTcTiF" name="第 2 页">
    <mxGraphModel grid="1" page="1" gridSize="10" guides="1" tooltips="1" connect="1" arrows="1" fold="1" pageScale="1" pageWidth="20000" pageHeight="40000" math="0" shadow="0">
      <root>
        <mxCell id="0" />
        <mxCell id="1" parent="0" />
      </root>
    </mxGraphModel>
  </diagram>
</mxfile>
